<svg width="124" height="23" viewBox="0 0 124 23" fill="none" xmlns="http://www.w3.org/2000/svg">
<rect width="124" height="22.6266" fill="white" style="fill:white;fill-opacity:1;"/>
<g clip-path="url(#clip0_4424_16076)">
<g clip-path="url(#clip1_4424_16076)">
<path d="M57.6989 7.13401L54.9047 7.29403C54.8918 7.29403 54.8819 7.30532 54.8819 7.31756V17.0759C54.8819 17.089 54.8928 17.0994 54.9066 17.0994H57.7009C57.7148 17.0994 57.7256 17.089 57.7256 17.0759V7.15754C57.7256 7.14436 57.7128 7.13401 57.6989 7.13401Z" fill="#016071" style="fill:#016071;fill:color(display-p3 0.0039 0.3765 0.4431);fill-opacity:1;"/>
<path d="M56.3033 3.59949C54.965 3.59949 54.7494 4.09272 54.7494 4.95494C54.7494 5.71455 54.965 6.29062 56.3033 6.29062C57.6416 6.29062 57.8572 5.71549 57.8572 4.95494C57.8572 4.09178 57.5763 3.59949 56.3033 3.59949Z" fill="#016071" style="fill:#016071;fill:color(display-p3 0.0039 0.3765 0.4431);fill-opacity:1;"/>
<path d="M49.8809 7.07094C49.2765 7.07094 47.6969 7.07094 46.2626 7.89174C46.2626 7.89174 46.2616 7.89174 46.2607 7.89268C46.1251 7.9614 45.9916 8.03576 45.8601 8.11671C45.3447 7.41828 44.4179 7.07094 43.1281 7.07094C42.6503 7.07094 41.1775 7.15472 39.7512 7.81832V7.1566C39.7512 7.14342 39.7403 7.13307 39.7265 7.13307L36.9322 7.29309C36.9193 7.29309 36.9094 7.30344 36.9094 7.31662V17.0749C36.9094 17.0881 36.9203 17.0984 36.9332 17.0984H39.7275C39.7403 17.0984 39.7512 17.0881 39.7512 17.0749V9.45145C40.5999 9.10506 41.4179 9.10506 41.953 9.10506C42.958 9.10506 43.5989 9.55217 43.5989 10.6299V17.0749C43.5989 17.0881 43.6098 17.0984 43.6236 17.0984H46.3101C46.323 17.0984 46.3348 17.0881 46.3348 17.0749V9.77619C46.3348 9.68207 46.3319 9.59076 46.3249 9.50134C47.2142 9.10506 48.0836 9.10506 48.6435 9.10506C48.6751 9.10506 48.7058 9.10506 48.7364 9.106C49.6009 9.13424 50.2459 9.5597 50.2864 10.5311C50.2874 10.564 50.2884 10.597 50.2884 10.6309L50.1608 17.0759C50.1608 17.0881 50.1717 17.0994 50.1855 17.0994H52.9788C52.9917 17.0994 53.0035 17.089 53.0035 17.0759V9.77714C53.0035 7.96705 51.8285 7.07188 49.8828 7.07188L49.8809 7.07094Z" fill="#016071" style="fill:#016071;fill:color(display-p3 0.0039 0.3765 0.4431);fill-opacity:1;"/>
<path d="M78.1047 14.572C77.0097 15.1321 76.2184 15.4512 74.6942 15.4512C72.0868 15.4512 71.98 13.9461 71.98 12.0136C71.98 10.0812 72.1511 8.77937 74.523 8.77937C75.7525 8.77937 76.7713 8.93939 77.9355 9.2792C77.9504 9.2839 77.9652 9.27449 77.9672 9.25943L78.1343 7.65642C78.1343 7.64701 78.1294 7.63665 78.1205 7.63289C77.2481 7.24979 76.2233 6.90716 74.524 6.90716C70.8059 6.90716 69.245 9.22554 69.245 12.0127C69.245 14.941 70.4419 17.2603 74.2253 17.2603C76.0967 17.2603 77.5883 16.656 78.3609 16.0894C78.3678 16.0837 78.3707 16.0762 78.3698 16.0677L78.1413 14.589C78.1393 14.573 78.1195 14.5645 78.1047 14.572Z" fill="#016071" style="fill:#016071;fill:color(display-p3 0.0039 0.3765 0.4431);fill-opacity:1;"/>
<path d="M81.3738 6.29062C82.6478 6.29062 82.9277 5.71549 82.9277 4.95494C82.9277 4.09178 82.6468 3.59949 81.3738 3.59949C80.0355 3.59949 79.8198 4.09272 79.8198 4.95494C79.8198 5.71455 80.0355 6.29062 81.3738 6.29062Z" fill="#016071" style="fill:#016071;fill:color(display-p3 0.0039 0.3765 0.4431);fill-opacity:1;"/>
<path d="M82.7694 7.13401L79.9751 7.29403C79.9623 7.29403 79.9524 7.30532 79.9524 7.31756V17.0759C79.9524 17.089 79.9633 17.0994 79.9771 17.0994H82.7714C82.7852 17.0994 82.7961 17.089 82.7961 17.0759V7.15754C82.7961 7.14436 82.7833 7.13401 82.7694 7.13401Z" fill="#016071" style="fill:#016071;fill:color(display-p3 0.0039 0.3765 0.4431);fill-opacity:1;"/>
<path d="M68.0383 14.572C66.9423 15.1321 66.1313 15.4512 64.5862 15.4512C61.9779 15.4512 61.9146 13.9461 61.9146 12.0136C61.9146 10.0812 62.0432 8.77937 64.4794 8.77937C65.6881 8.77937 66.6436 8.93939 67.8069 9.28014C67.8217 9.2839 67.8365 9.27543 67.8385 9.26037L68.068 7.65736C68.069 7.64701 68.064 7.6376 68.0541 7.63383C67.1817 7.25073 66.1372 6.9081 64.4804 6.9081C60.697 6.9081 59.2232 9.22648 59.2232 12.0136C59.2232 14.942 60.334 17.2613 64.1817 17.2613C66.0749 17.2613 67.5447 16.657 68.2955 16.0903C68.3024 16.0847 68.3064 16.0772 68.3044 16.0687L68.0769 14.589C68.0739 14.5739 68.0561 14.5654 68.0403 14.572H68.0383Z" fill="#016071" style="fill:#016071;fill:color(display-p3 0.0039 0.3765 0.4431);fill-opacity:1;"/>
<path d="M35.0073 7.83621C34.125 7.45028 32.4287 6.90904 30.7738 6.90904C26.9904 6.90904 24.7461 8.45463 24.7461 12.2791C24.7461 15.7976 26.4988 17.282 28.7857 17.282C29.2654 17.282 30.7511 17.1973 32.1843 16.5243V17.1361C32.1843 17.1493 32.1952 17.1596 32.2091 17.1596H35.0024C35.0162 17.1596 35.0271 17.1493 35.0271 17.1361V7.86539C35.0271 7.85221 35.0192 7.84186 35.0073 7.83621ZM29.9618 15.2479C28.5087 15.2479 27.7174 14.4544 27.7174 12.2584C27.7174 10.0623 28.3376 8.78032 30.7738 8.78032C31.2773 8.78032 31.7353 8.80761 32.1843 8.86503V14.8676C31.3288 15.2121 30.5008 15.2479 29.9618 15.2479Z" fill="#016071" style="fill:#016071;fill:color(display-p3 0.0039 0.3765 0.4431);fill-opacity:1;"/>
<path d="M17.5551 6.67465V13.6157C17.5551 13.8275 17.4502 13.9451 17.3068 13.9969C16.2702 14.3706 13.1317 15.5001 13.1317 15.5001C13.1089 15.5086 13.0842 15.4926 13.0842 15.4691V9.88066C8.71424 12.2245 5.68354 13.7107 5.68354 16.191C5.68354 18.2779 7.51047 19.0252 11.2711 18.067C12.9843 17.6303 16.5689 15.9021 19.3187 14.5024C19.3424 14.4901 19.3701 14.5071 19.3701 14.5315V16.0781C19.3701 16.0875 19.3662 16.096 19.3592 16.1026C19.0566 16.3642 12.6529 21.8491 8.09207 22.0364C4.49659 22.1842 0.691406 20.6988 0.691406 15.6752C0.691406 10.9961 7.9892 7.42768 10.6974 6.26425L3.77057 4.63677C3.75276 4.633 3.74188 4.61606 3.74485 4.59912L4.43922 0.610898C4.44219 0.592072 4.46197 0.578894 4.48175 0.5836C5.01588 0.714439 11.0862 2.20355 14.0011 2.91987C16.1871 3.4564 17.5551 4.30732 17.5551 6.67559V6.67465Z" fill="#0FC2C0" style="fill:#0FC2C0;fill:color(display-p3 0.0588 0.7608 0.7529);fill-opacity:1;"/>
</g>
</g>
<g clip-path="url(#clip2_4424_16076)">
<g clip-path="url(#clip3_4424_16076)">
<path d="M118.996 20.5813C116.996 20.5813 115.396 19.6693 114.724 18.1493L115.908 17.8133C116.452 18.8533 117.604 19.5253 118.996 19.5253C121.092 19.5253 122.292 18.5013 122.292 15.8773V15.0133C121.732 16.5813 120.356 17.2533 118.804 17.2533C116.532 17.2533 114.484 15.7653 114.484 12.5973C114.484 9.44527 116.532 7.95728 118.788 7.95728C120.34 7.95728 121.732 8.61328 122.292 10.1973V8.11728H123.556V15.7173C123.556 19.1253 121.908 20.5813 118.996 20.5813ZM119.044 16.2133C121.012 16.2133 122.324 14.8373 122.324 12.5973C122.324 10.3573 121.012 8.98128 119.012 8.98128C117.044 8.98128 115.732 10.3573 115.732 12.5973C115.732 14.8533 117.044 16.2133 119.044 16.2133Z" fill="#212323" style="fill:#212323;fill:color(display-p3 0.1294 0.1373 0.1373);fill-opacity:1;"/>
<path d="M108.019 17.4773C105.699 17.4773 103.459 16.0213 103.459 12.6933C103.459 9.39728 105.699 7.94128 107.987 7.94128C110.291 7.94128 112.547 9.39728 112.547 12.6933C112.547 16.0213 110.307 17.4773 108.019 17.4773ZM108.019 16.3573C109.987 16.3573 111.299 14.9493 111.299 12.6933C111.299 10.4533 109.971 9.06128 107.987 9.06128C106.019 9.06128 104.707 10.4373 104.707 12.6933C104.707 14.9653 106.019 16.3573 108.019 16.3573Z" fill="#212323" style="fill:#212323;fill:color(display-p3 0.1294 0.1373 0.1373);fill-opacity:1;"/>
<path d="M99.9419 17.2692V5.14124H101.206V17.2692H99.9419Z" fill="#212323" style="fill:#212323;fill:color(display-p3 0.1294 0.1373 0.1373);fill-opacity:1;"/>
<path d="M93.388 17.4772C91.82 17.4772 90.444 16.7092 89.868 15.2052V17.2532H88.62V5.14124H89.868V10.2132C90.444 8.70924 91.82 7.94124 93.372 7.94124C95.612 7.94124 97.692 9.47724 97.692 12.6932C97.692 15.9412 95.628 17.4772 93.388 17.4772ZM93.164 16.3572C95.132 16.3572 96.428 14.9492 96.428 12.6932C96.428 10.4532 95.116 9.06124 93.132 9.06124C91.164 9.06124 89.852 10.4372 89.852 12.6932C89.852 14.9652 91.164 16.3572 93.164 16.3572Z" fill="#212323" style="fill:#212323;fill:color(display-p3 0.1294 0.1373 0.1373);fill-opacity:1;"/>
</g>
</g>
<defs>
<clipPath id="clip0_4424_16076">
<rect width="83.62" height="22.6266" fill="white" style="fill:white;fill-opacity:1;"/>
</clipPath>
<clipPath id="clip1_4424_16076">
<rect width="83.62" height="22.6266" fill="white" style="fill:white;fill-opacity:1;"/>
</clipPath>
<clipPath id="clip2_4424_16076">
<rect width="34.9364" height="17.44" fill="white" style="fill:white;fill-opacity:1;" transform="translate(88.62 3.14124)"/>
</clipPath>
<clipPath id="clip3_4424_16076">
<rect width="34.9364" height="15.44" fill="white" style="fill:white;fill-opacity:1;" transform="translate(88.62 5.14124)"/>
</clipPath>
</defs>
</svg>
