<svg width="211" height="23" viewBox="0 0 211 23" fill="none" xmlns="http://www.w3.org/2000/svg">
<rect width="211" height="22.6266" fill="white" style="fill:white;fill-opacity:1;"/>
<g clip-path="url(#clip0_4424_16076)">
<g clip-path="url(#clip1_4424_16076)">
<path d="M57.6989 7.13401L54.9047 7.29403C54.8918 7.29403 54.8819 7.30532 54.8819 7.31756V17.0759C54.8819 17.089 54.8928 17.0994 54.9066 17.0994H57.7009C57.7148 17.0994 57.7256 17.089 57.7256 17.0759V7.15754C57.7256 7.14436 57.7128 7.13401 57.6989 7.13401Z" fill="#016071" style="fill:#016071;fill:color(display-p3 0.0039 0.3765 0.4431);fill-opacity:1;"/>
<path d="M56.3033 3.59949C54.965 3.59949 54.7494 4.09272 54.7494 4.95494C54.7494 5.71455 54.965 6.29062 56.3033 6.29062C57.6416 6.29062 57.8572 5.71549 57.8572 4.95494C57.8572 4.09178 57.5763 3.59949 56.3033 3.59949Z" fill="#016071" style="fill:#016071;fill:color(display-p3 0.0039 0.3765 0.4431);fill-opacity:1;"/>
<path d="M49.8809 7.07094C49.2765 7.07094 47.6969 7.07094 46.2626 7.89174C46.2626 7.89174 46.2616 7.89174 46.2607 7.89268C46.1251 7.9614 45.9916 8.03576 45.8601 8.11671C45.3447 7.41828 44.4179 7.07094 43.1281 7.07094C42.6503 7.07094 41.1775 7.15472 39.7512 7.81832V7.1566C39.7512 7.14342 39.7403 7.13307 39.7265 7.13307L36.9322 7.29309C36.9193 7.29309 36.9094 7.30344 36.9094 7.31662V17.0749C36.9094 17.0881 36.9203 17.0984 36.9332 17.0984H39.7275C39.7403 17.0984 39.7512 17.0881 39.7512 17.0749V9.45145C40.5999 9.10506 41.4179 9.10506 41.953 9.10506C42.958 9.10506 43.5989 9.55217 43.5989 10.6299V17.0749C43.5989 17.0881 43.6098 17.0984 43.6236 17.0984H46.3101C46.323 17.0984 46.3348 17.0881 46.3348 17.0749V9.77619C46.3348 9.68207 46.3319 9.59076 46.3249 9.50134C47.2142 9.10506 48.0836 9.10506 48.6435 9.10506C48.6751 9.10506 48.7058 9.10506 48.7364 9.106C49.6009 9.13424 50.2459 9.5597 50.2864 10.5311C50.2874 10.564 50.2884 10.597 50.2884 10.6309L50.1608 17.0759C50.1608 17.0881 50.1717 17.0994 50.1855 17.0994H52.9788C52.9917 17.0994 53.0035 17.089 53.0035 17.0759V9.77714C53.0035 7.96705 51.8285 7.07188 49.8828 7.07188L49.8809 7.07094Z" fill="#016071" style="fill:#016071;fill:color(display-p3 0.0039 0.3765 0.4431);fill-opacity:1;"/>
<path d="M78.1047 14.572C77.0097 15.1321 76.2184 15.4512 74.6942 15.4512C72.0868 15.4512 71.98 13.9461 71.98 12.0136C71.98 10.0812 72.1511 8.77937 74.523 8.77937C75.7525 8.77937 76.7713 8.93939 77.9355 9.2792C77.9504 9.2839 77.9652 9.27449 77.9672 9.25943L78.1343 7.65642C78.1343 7.64701 78.1294 7.63665 78.1205 7.63289C77.2481 7.24979 76.2233 6.90716 74.524 6.90716C70.8059 6.90716 69.245 9.22554 69.245 12.0127C69.245 14.941 70.4419 17.2603 74.2253 17.2603C76.0967 17.2603 77.5883 16.656 78.3609 16.0894C78.3678 16.0837 78.3707 16.0762 78.3698 16.0677L78.1413 14.589C78.1393 14.573 78.1195 14.5645 78.1047 14.572Z" fill="#016071" style="fill:#016071;fill:color(display-p3 0.0039 0.3765 0.4431);fill-opacity:1;"/>
<path d="M81.3738 6.29062C82.6478 6.29062 82.9277 5.71549 82.9277 4.95494C82.9277 4.09178 82.6468 3.59949 81.3738 3.59949C80.0355 3.59949 79.8198 4.09272 79.8198 4.95494C79.8198 5.71455 80.0355 6.29062 81.3738 6.29062Z" fill="#016071" style="fill:#016071;fill:color(display-p3 0.0039 0.3765 0.4431);fill-opacity:1;"/>
<path d="M82.7694 7.13401L79.9751 7.29403C79.9623 7.29403 79.9524 7.30532 79.9524 7.31756V17.0759C79.9524 17.089 79.9633 17.0994 79.9771 17.0994H82.7714C82.7852 17.0994 82.7961 17.089 82.7961 17.0759V7.15754C82.7961 7.14436 82.7833 7.13401 82.7694 7.13401Z" fill="#016071" style="fill:#016071;fill:color(display-p3 0.0039 0.3765 0.4431);fill-opacity:1;"/>
<path d="M68.0383 14.572C66.9423 15.1321 66.1313 15.4512 64.5862 15.4512C61.9779 15.4512 61.9146 13.9461 61.9146 12.0136C61.9146 10.0812 62.0432 8.77937 64.4794 8.77937C65.6881 8.77937 66.6436 8.93939 67.8069 9.28014C67.8217 9.2839 67.8365 9.27543 67.8385 9.26037L68.068 7.65736C68.069 7.64701 68.064 7.6376 68.0541 7.63383C67.1817 7.25073 66.1372 6.9081 64.4804 6.9081C60.697 6.9081 59.2232 9.22648 59.2232 12.0136C59.2232 14.942 60.334 17.2613 64.1817 17.2613C66.0749 17.2613 67.5447 16.657 68.2955 16.0903C68.3024 16.0847 68.3064 16.0772 68.3044 16.0687L68.0769 14.589C68.0739 14.5739 68.0561 14.5654 68.0403 14.572H68.0383Z" fill="#016071" style="fill:#016071;fill:color(display-p3 0.0039 0.3765 0.4431);fill-opacity:1;"/>
<path d="M35.0073 7.83621C34.125 7.45028 32.4287 6.90904 30.7738 6.90904C26.9904 6.90904 24.7461 8.45463 24.7461 12.2791C24.7461 15.7976 26.4988 17.282 28.7857 17.282C29.2654 17.282 30.7511 17.1973 32.1843 16.5243V17.1361C32.1843 17.1493 32.1952 17.1596 32.2091 17.1596H35.0024C35.0162 17.1596 35.0271 17.1493 35.0271 17.1361V7.86539C35.0271 7.85221 35.0192 7.84186 35.0073 7.83621ZM29.9618 15.2479C28.5087 15.2479 27.7174 14.4544 27.7174 12.2584C27.7174 10.0623 28.3376 8.78032 30.7738 8.78032C31.2773 8.78032 31.7353 8.80761 32.1843 8.86503V14.8676C31.3288 15.2121 30.5008 15.2479 29.9618 15.2479Z" fill="#016071" style="fill:#016071;fill:color(display-p3 0.0039 0.3765 0.4431);fill-opacity:1;"/>
<path d="M17.5551 6.67465V13.6157C17.5551 13.8275 17.4502 13.9451 17.3068 13.9969C16.2702 14.3706 13.1317 15.5001 13.1317 15.5001C13.1089 15.5086 13.0842 15.4926 13.0842 15.4691V9.88066C8.71424 12.2245 5.68354 13.7107 5.68354 16.191C5.68354 18.2779 7.51047 19.0252 11.2711 18.067C12.9843 17.6303 16.5689 15.9021 19.3187 14.5024C19.3424 14.4901 19.3701 14.5071 19.3701 14.5315V16.0781C19.3701 16.0875 19.3662 16.096 19.3592 16.1026C19.0566 16.3642 12.6529 21.8491 8.09207 22.0364C4.49659 22.1842 0.691406 20.6988 0.691406 15.6752C0.691406 10.9961 7.9892 7.42768 10.6974 6.26425L3.77057 4.63677C3.75276 4.633 3.74188 4.61606 3.74485 4.59912L4.43922 0.610898C4.44219 0.592072 4.46197 0.578894 4.48175 0.5836C5.01588 0.714439 11.0862 2.20355 14.0011 2.91987C16.1871 3.4564 17.5551 4.30732 17.5551 6.67559V6.67465Z" fill="#0FC2C0" style="fill:#0FC2C0;fill:color(display-p3 0.0588 0.7608 0.7529);fill-opacity:1;"/>
</g>
</g>
<path d="M196.881 17.128V7.97605H198.129V10.008C198.449 8.68005 199.505 7.81605 201.025 7.81605C202.689 7.81605 203.489 8.56805 203.953 10.232C204.353 8.66405 205.537 7.80005 207.313 7.80005C209.713 7.80005 210.609 9.35205 210.609 12.616V17.128H209.345V12.696C209.345 10.104 208.689 8.93605 206.881 8.93605C205.041 8.93605 204.305 10.104 204.305 12.696V17.128H203.057V12.728C203.057 10.088 202.497 8.95205 200.721 8.95205C198.897 8.95205 198.129 10.248 198.129 12.872V17.128H196.881Z" fill="#212323" style="fill:#212323;fill:color(display-p3 0.1294 0.1373 0.1373);fill-opacity:1;"/>
<path d="M190.301 17.304C187.485 17.304 185.661 15.416 185.661 12.552C185.661 9.73605 187.517 7.80005 190.221 7.80005C193.053 7.80005 194.797 9.81605 194.605 12.792H186.909C186.957 14.92 188.253 16.2 190.317 16.2C191.773 16.2 192.717 15.656 193.293 14.616L194.445 14.872C193.661 16.456 192.301 17.304 190.301 17.304ZM186.957 11.736H193.405C193.293 9.97605 192.109 8.85605 190.237 8.85605C188.445 8.85605 187.181 9.92805 186.957 11.736Z" fill="#212323" style="fill:#212323;fill:color(display-p3 0.1294 0.1373 0.1373);fill-opacity:1;"/>
<path d="M183.621 17.2559C181.365 17.2559 180.405 16.2159 180.405 13.3999V8.99994H179.045V7.97594H180.405V6.26394L181.685 5.99194V7.97594H184.549V8.99994H181.685V13.2879C181.685 15.4639 182.213 16.1999 183.765 16.1999C183.941 16.1999 184.133 16.1839 184.501 16.1199L184.677 17.1439C184.341 17.2079 183.909 17.2559 183.621 17.2559Z" fill="#212323" style="fill:#212323;fill:color(display-p3 0.1294 0.1373 0.1373);fill-opacity:1;"/>
<path d="M174.047 17.288C172.063 17.288 170.431 16.392 169.775 15L170.911 14.632C171.471 15.608 172.591 16.168 174.047 16.168C175.711 16.168 176.671 15.56 176.671 14.536C176.671 12.136 170.271 13.992 170.271 10.344C170.271 8.84004 171.823 7.81604 173.935 7.81604C175.551 7.81604 177.071 8.60004 177.695 9.75204L176.607 10.152C176.095 9.38404 175.103 8.90404 173.951 8.90404C172.447 8.90404 171.519 9.46404 171.519 10.376C171.519 12.776 177.935 10.888 177.935 14.52C177.935 16.2 176.415 17.288 174.047 17.288Z" fill="#212323" style="fill:#212323;fill:color(display-p3 0.1294 0.1373 0.1373);fill-opacity:1;"/>
<path d="M162.29 20.088L163.666 17.048L159.57 7.97595H160.962L164.338 15.688L167.714 7.97595H169.106L163.65 20.088H162.29Z" fill="#212323" style="fill:#212323;fill:color(display-p3 0.1294 0.1373 0.1373);fill-opacity:1;"/>
<path d="M154.981 17.288C152.997 17.288 151.365 16.392 150.709 15L151.845 14.632C152.405 15.608 153.525 16.168 154.981 16.168C156.645 16.168 157.605 15.56 157.605 14.536C157.605 12.136 151.205 13.992 151.205 10.344C151.205 8.84004 152.757 7.81604 154.869 7.81604C156.485 7.81604 158.005 8.60004 158.629 9.75204L157.541 10.152C157.029 9.38404 156.037 8.90404 154.885 8.90404C153.381 8.90404 152.453 9.46404 152.453 10.376C152.453 12.776 158.869 10.888 158.869 14.52C158.869 16.2 157.349 17.288 154.981 17.288Z" fill="#212323" style="fill:#212323;fill:color(display-p3 0.1294 0.1373 0.1373);fill-opacity:1;"/>
<path d="M135.893 17.128V7.97604H137.141V9.92804C137.557 8.68004 138.613 7.81604 140.277 7.81604C142.869 7.81604 144.085 9.33604 144.085 12.232V17.128H142.837V12.312C142.837 10.04 141.941 8.95204 139.973 8.95204C137.973 8.95204 137.141 10.28 137.141 12.584V17.128H135.893Z" fill="#212323" style="fill:#212323;fill:color(display-p3 0.1294 0.1373 0.1373);fill-opacity:1;"/>
<path d="M128.638 20.44C126.638 20.44 125.038 19.528 124.366 18.008L125.55 17.672C126.094 18.712 127.246 19.384 128.638 19.384C130.734 19.384 131.934 18.36 131.934 15.736V14.872C131.374 16.44 129.998 17.112 128.446 17.112C126.174 17.112 124.126 15.624 124.126 12.456C124.126 9.30404 126.174 7.81604 128.43 7.81604C129.982 7.81604 131.374 8.47204 131.934 10.056V7.97604H133.198V15.576C133.198 18.984 131.55 20.44 128.638 20.44ZM128.686 16.072C130.654 16.072 131.966 14.696 131.966 12.456C131.966 10.216 130.654 8.84004 128.654 8.84004C126.686 8.84004 125.374 10.216 125.374 12.456C125.374 14.712 126.686 16.072 128.686 16.072Z" fill="#212323" style="fill:#212323;fill:color(display-p3 0.1294 0.1373 0.1373);fill-opacity:1;"/>
<path d="M121.187 6.56795C120.755 6.56795 120.419 6.27995 120.419 5.83195C120.419 5.38395 120.755 5.09595 121.187 5.09595C121.619 5.09595 121.987 5.38395 121.987 5.83195C121.987 6.27995 121.619 6.56795 121.187 6.56795ZM120.563 17.1279V7.97595H121.795V17.1279H120.563Z" fill="#212323" style="fill:#212323;fill:color(display-p3 0.1294 0.1373 0.1373);fill-opacity:1;"/>
<path d="M114.684 17.288C112.7 17.288 111.068 16.392 110.412 15L111.548 14.632C112.108 15.608 113.228 16.168 114.684 16.168C116.348 16.168 117.308 15.56 117.308 14.536C117.308 12.136 110.908 13.992 110.908 10.344C110.908 8.84004 112.46 7.81604 114.572 7.81604C116.188 7.81604 117.708 8.60004 118.332 9.75204L117.244 10.152C116.732 9.38404 115.74 8.90404 114.588 8.90404C113.084 8.90404 112.156 9.46404 112.156 10.376C112.156 12.776 118.572 10.888 118.572 14.52C118.572 16.2 117.052 17.288 114.684 17.288Z" fill="#212323" style="fill:#212323;fill:color(display-p3 0.1294 0.1373 0.1373);fill-opacity:1;"/>
<path d="M104.707 17.304C101.891 17.304 100.067 15.416 100.067 12.552C100.067 9.73605 101.923 7.80005 104.627 7.80005C107.459 7.80005 109.203 9.81605 109.011 12.792H101.315C101.363 14.92 102.659 16.2 104.723 16.2C106.179 16.2 107.123 15.656 107.699 14.616L108.851 14.872C108.067 16.456 106.707 17.304 104.707 17.304ZM101.363 11.736H107.811C107.699 9.97605 106.515 8.85605 104.643 8.85605C102.851 8.85605 101.587 9.92805 101.363 11.736Z" fill="#212323" style="fill:#212323;fill:color(display-p3 0.1294 0.1373 0.1373);fill-opacity:1;"/>
<path d="M92.94 17.336C90.668 17.336 88.62 15.8 88.62 12.552C88.62 9.336 90.668 7.8 92.924 7.8C94.476 7.8 95.868 8.568 96.428 10.088V5H97.692V17.112H96.428V15.064C95.868 16.568 94.492 17.336 92.94 17.336ZM93.18 16.216C95.164 16.216 96.46 14.808 96.46 12.552C96.46 10.312 95.148 8.92 93.148 8.92C91.18 8.92 89.868 10.296 89.868 12.552C89.868 14.824 91.18 16.216 93.18 16.216Z" fill="#212323" style="fill:#212323;fill:color(display-p3 0.1294 0.1373 0.1373);fill-opacity:1;"/>
<defs>
<clipPath id="clip0_4424_16076">
<rect width="83.62" height="22.6266" fill="white" style="fill:white;fill-opacity:1;"/>
</clipPath>
<clipPath id="clip1_4424_16076">
<rect width="83.62" height="22.6266" fill="white" style="fill:white;fill-opacity:1;"/>
</clipPath>
</defs>
</svg>
