<svg width="185" height="23" viewBox="0 0 185 23" fill="none" xmlns="http://www.w3.org/2000/svg">
<rect width="184" height="22.6266" fill="white" style="fill:white;fill-opacity:1;"/>
<g clip-path="url(#clip0_4424_16076)">
<g clip-path="url(#clip1_4424_16076)">
<path d="M57.6989 7.13401L54.9047 7.29403C54.8918 7.29403 54.8819 7.30532 54.8819 7.31756V17.0759C54.8819 17.089 54.8928 17.0994 54.9066 17.0994H57.7009C57.7148 17.0994 57.7256 17.089 57.7256 17.0759V7.15754C57.7256 7.14436 57.7128 7.13401 57.6989 7.13401Z" fill="#016071" style="fill:#016071;fill:color(display-p3 0.0039 0.3765 0.4431);fill-opacity:1;"/>
<path d="M56.3033 3.59949C54.965 3.59949 54.7494 4.09272 54.7494 4.95494C54.7494 5.71455 54.965 6.29062 56.3033 6.29062C57.6416 6.29062 57.8572 5.71549 57.8572 4.95494C57.8572 4.09178 57.5763 3.59949 56.3033 3.59949Z" fill="#016071" style="fill:#016071;fill:color(display-p3 0.0039 0.3765 0.4431);fill-opacity:1;"/>
<path d="M49.8809 7.07094C49.2765 7.07094 47.6969 7.07094 46.2626 7.89174C46.2626 7.89174 46.2616 7.89174 46.2607 7.89268C46.1251 7.9614 45.9916 8.03576 45.8601 8.11671C45.3447 7.41828 44.4179 7.07094 43.1281 7.07094C42.6503 7.07094 41.1775 7.15472 39.7512 7.81832V7.1566C39.7512 7.14342 39.7403 7.13307 39.7265 7.13307L36.9322 7.29309C36.9193 7.29309 36.9094 7.30344 36.9094 7.31662V17.0749C36.9094 17.0881 36.9203 17.0984 36.9332 17.0984H39.7275C39.7403 17.0984 39.7512 17.0881 39.7512 17.0749V9.45145C40.5999 9.10506 41.4179 9.10506 41.953 9.10506C42.958 9.10506 43.5989 9.55217 43.5989 10.6299V17.0749C43.5989 17.0881 43.6098 17.0984 43.6236 17.0984H46.3101C46.323 17.0984 46.3348 17.0881 46.3348 17.0749V9.77619C46.3348 9.68207 46.3319 9.59076 46.3249 9.50134C47.2142 9.10506 48.0836 9.10506 48.6435 9.10506C48.6751 9.10506 48.7058 9.10506 48.7364 9.106C49.6009 9.13424 50.2459 9.5597 50.2864 10.5311C50.2874 10.564 50.2884 10.597 50.2884 10.6309L50.1608 17.0759C50.1608 17.0881 50.1717 17.0994 50.1855 17.0994H52.9788C52.9917 17.0994 53.0035 17.089 53.0035 17.0759V9.77714C53.0035 7.96705 51.8285 7.07188 49.8828 7.07188L49.8809 7.07094Z" fill="#016071" style="fill:#016071;fill:color(display-p3 0.0039 0.3765 0.4431);fill-opacity:1;"/>
<path d="M78.1047 14.572C77.0097 15.1321 76.2184 15.4512 74.6942 15.4512C72.0868 15.4512 71.98 13.9461 71.98 12.0136C71.98 10.0812 72.1511 8.77937 74.523 8.77937C75.7525 8.77937 76.7713 8.93939 77.9355 9.2792C77.9504 9.2839 77.9652 9.27449 77.9672 9.25943L78.1343 7.65642C78.1343 7.64701 78.1294 7.63665 78.1205 7.63289C77.2481 7.24979 76.2233 6.90716 74.524 6.90716C70.8059 6.90716 69.245 9.22554 69.245 12.0127C69.245 14.941 70.4419 17.2603 74.2253 17.2603C76.0967 17.2603 77.5883 16.656 78.3609 16.0894C78.3678 16.0837 78.3707 16.0762 78.3698 16.0677L78.1413 14.589C78.1393 14.573 78.1195 14.5645 78.1047 14.572Z" fill="#016071" style="fill:#016071;fill:color(display-p3 0.0039 0.3765 0.4431);fill-opacity:1;"/>
<path d="M81.3738 6.29062C82.6478 6.29062 82.9277 5.71549 82.9277 4.95494C82.9277 4.09178 82.6468 3.59949 81.3738 3.59949C80.0355 3.59949 79.8198 4.09272 79.8198 4.95494C79.8198 5.71455 80.0355 6.29062 81.3738 6.29062Z" fill="#016071" style="fill:#016071;fill:color(display-p3 0.0039 0.3765 0.4431);fill-opacity:1;"/>
<path d="M82.7694 7.13401L79.9751 7.29403C79.9623 7.29403 79.9524 7.30532 79.9524 7.31756V17.0759C79.9524 17.089 79.9633 17.0994 79.9771 17.0994H82.7714C82.7852 17.0994 82.7961 17.089 82.7961 17.0759V7.15754C82.7961 7.14436 82.7833 7.13401 82.7694 7.13401Z" fill="#016071" style="fill:#016071;fill:color(display-p3 0.0039 0.3765 0.4431);fill-opacity:1;"/>
<path d="M68.0383 14.572C66.9423 15.1321 66.1313 15.4512 64.5862 15.4512C61.9779 15.4512 61.9146 13.9461 61.9146 12.0136C61.9146 10.0812 62.0432 8.77937 64.4794 8.77937C65.6881 8.77937 66.6436 8.93939 67.8069 9.28014C67.8217 9.2839 67.8365 9.27543 67.8385 9.26037L68.068 7.65736C68.069 7.64701 68.064 7.6376 68.0541 7.63383C67.1817 7.25073 66.1372 6.9081 64.4804 6.9081C60.697 6.9081 59.2232 9.22648 59.2232 12.0136C59.2232 14.942 60.334 17.2613 64.1817 17.2613C66.0749 17.2613 67.5447 16.657 68.2955 16.0903C68.3024 16.0847 68.3064 16.0772 68.3044 16.0687L68.0769 14.589C68.0739 14.5739 68.0561 14.5654 68.0403 14.572H68.0383Z" fill="#016071" style="fill:#016071;fill:color(display-p3 0.0039 0.3765 0.4431);fill-opacity:1;"/>
<path d="M35.0073 7.83621C34.125 7.45028 32.4287 6.90904 30.7738 6.90904C26.9904 6.90904 24.7461 8.45463 24.7461 12.2791C24.7461 15.7976 26.4988 17.282 28.7857 17.282C29.2654 17.282 30.7511 17.1973 32.1843 16.5243V17.1361C32.1843 17.1493 32.1952 17.1596 32.2091 17.1596H35.0024C35.0162 17.1596 35.0271 17.1493 35.0271 17.1361V7.86539C35.0271 7.85221 35.0192 7.84186 35.0073 7.83621ZM29.9618 15.2479C28.5087 15.2479 27.7174 14.4544 27.7174 12.2584C27.7174 10.0623 28.3376 8.78032 30.7738 8.78032C31.2773 8.78032 31.7353 8.80761 32.1843 8.86503V14.8676C31.3288 15.2121 30.5008 15.2479 29.9618 15.2479Z" fill="#016071" style="fill:#016071;fill:color(display-p3 0.0039 0.3765 0.4431);fill-opacity:1;"/>
<path d="M17.5551 6.67465V13.6157C17.5551 13.8275 17.4502 13.9451 17.3068 13.9969C16.2702 14.3706 13.1317 15.5001 13.1317 15.5001C13.1089 15.5086 13.0842 15.4926 13.0842 15.4691V9.88066C8.71424 12.2245 5.68354 13.7107 5.68354 16.191C5.68354 18.2779 7.51047 19.0252 11.2711 18.067C12.9843 17.6303 16.5689 15.9021 19.3187 14.5024C19.3424 14.4901 19.3701 14.5071 19.3701 14.5315V16.0781C19.3701 16.0875 19.3662 16.096 19.3592 16.1026C19.0566 16.3642 12.6529 21.8491 8.09207 22.0364C4.49659 22.1842 0.691406 20.6988 0.691406 15.6752C0.691406 10.9961 7.9892 7.42768 10.6974 6.26425L3.77057 4.63677C3.75276 4.633 3.74188 4.61606 3.74485 4.59912L4.43922 0.610898C4.44219 0.592072 4.46197 0.578894 4.48175 0.5836C5.01588 0.714439 11.0862 2.20355 14.0011 2.91987C16.1871 3.4564 17.5551 4.30732 17.5551 6.67559V6.67465Z" fill="#0FC2C0" style="fill:#0FC2C0;fill:color(display-p3 0.0588 0.7608 0.7529);fill-opacity:1;"/>
</g>
</g>
<g clip-path="url(#clip2_4424_16076)">
<path d="M179.384 17.4773C177.112 17.4773 175.064 15.9413 175.064 12.6933C175.064 9.47728 177.112 7.94128 179.368 7.94128C180.92 7.94128 182.296 8.70928 182.872 10.2293V8.11728H184.136V17.2533H182.872V15.2053C182.312 16.7093 180.936 17.4773 179.384 17.4773ZM179.624 16.3573C181.592 16.3573 182.904 14.9493 182.904 12.6933C182.904 10.4533 181.576 9.06128 179.592 9.06128C177.624 9.06128 176.312 10.4373 176.312 12.6933C176.312 14.9653 177.624 16.3573 179.624 16.3573Z" fill="#212323" style="fill:#212323;fill:color(display-p3 0.1294 0.1373 0.1373);fill-opacity:1;"/>
<path d="M172.124 6.70918C171.692 6.70918 171.356 6.42118 171.356 5.97318C171.356 5.52518 171.692 5.23718 172.124 5.23718C172.556 5.23718 172.924 5.52518 172.924 5.97318C172.924 6.42118 172.556 6.70918 172.124 6.70918ZM171.5 17.2692V8.11718H172.732V17.2692H171.5Z" fill="#212323" style="fill:#212323;fill:color(display-p3 0.1294 0.1373 0.1373);fill-opacity:1;"/>
<path d="M165.256 17.2692V8.11721H166.504V9.78121C166.888 8.69321 167.864 7.78121 169.832 8.08522L169.672 9.31722C167.448 8.90122 166.504 10.2132 166.504 12.5332V17.2692H165.256Z" fill="#212323" style="fill:#212323;fill:color(display-p3 0.1294 0.1373 0.1373);fill-opacity:1;"/>
<path d="M157.809 17.4773C155.537 17.4773 153.489 15.9413 153.489 12.6933C153.489 9.47728 155.537 7.94128 157.793 7.94128C159.345 7.94128 160.721 8.70928 161.297 10.2293V8.11728H162.561V17.2533H161.297V15.2053C160.737 16.7093 159.361 17.4773 157.809 17.4773ZM158.049 16.3573C160.017 16.3573 161.329 14.9493 161.329 12.6933C161.329 10.4533 160.001 9.06128 158.017 9.06128C156.049 9.06128 154.737 10.4373 154.737 12.6933C154.737 14.9653 156.049 16.3573 158.049 16.3573Z" fill="#212323" style="fill:#212323;fill:color(display-p3 0.1294 0.1373 0.1373);fill-opacity:1;"/>
<path d="M143.268 17.2692V5.14124H144.516V10.0692C144.9 8.85323 145.94 7.95724 147.652 7.95724C150.18 7.95724 151.46 9.39724 151.46 12.3732V17.2692H150.212V12.4532C150.212 10.1652 149.316 9.09324 147.348 9.09324C145.38 9.09324 144.516 10.3892 144.516 12.7252V17.2692H143.268Z" fill="#212323" style="fill:#212323;fill:color(display-p3 0.1294 0.1373 0.1373);fill-opacity:1;"/>
<path d="M132.728 17.2693V8.11728H133.976V10.0693C134.392 8.82128 135.448 7.95728 137.112 7.95728C139.704 7.95728 140.92 9.47728 140.92 12.3733V17.2693H139.672V12.4533C139.672 10.1813 138.776 9.09328 136.808 9.09328C134.808 9.09328 133.976 10.4213 133.976 12.7253V17.2693H132.728Z" fill="#212323" style="fill:#212323;fill:color(display-p3 0.1294 0.1373 0.1373);fill-opacity:1;"/>
<path d="M126.147 17.4453C123.331 17.4453 121.507 15.5573 121.507 12.6933C121.507 9.87728 123.363 7.94128 126.067 7.94128C128.899 7.94128 130.643 9.95728 130.451 12.9333H122.755C122.803 15.0613 124.099 16.3413 126.163 16.3413C127.619 16.3413 128.563 15.7973 129.139 14.7573L130.291 15.0133C129.507 16.5973 128.147 17.4453 126.147 17.4453ZM122.803 11.8773H129.251C129.139 10.1173 127.955 8.99728 126.083 8.99728C124.291 8.99728 123.027 10.0693 122.803 11.8773Z" fill="#212323" style="fill:#212323;fill:color(display-p3 0.1294 0.1373 0.1373);fill-opacity:1;"/>
<path d="M114.573 20.5813C112.573 20.5813 110.973 19.6693 110.301 18.1493L111.485 17.8133C112.029 18.8533 113.181 19.5253 114.573 19.5253C116.669 19.5253 117.869 18.5013 117.869 15.8773V15.0133C117.309 16.5813 115.933 17.2533 114.381 17.2533C112.109 17.2533 110.061 15.7653 110.061 12.5973C110.061 9.44527 112.109 7.95728 114.365 7.95728C115.917 7.95728 117.309 8.61328 117.869 10.1973V8.11728H119.133V15.7173C119.133 19.1253 117.485 20.5813 114.573 20.5813ZM114.621 16.2133C116.589 16.2133 117.901 14.8373 117.901 12.5973C117.901 10.3573 116.589 8.98128 114.589 8.98128C112.621 8.98128 111.309 10.3573 111.309 12.5973C111.309 14.8533 112.621 16.2133 114.621 16.2133Z" fill="#212323" style="fill:#212323;fill:color(display-p3 0.1294 0.1373 0.1373);fill-opacity:1;"/>
<path d="M99.84 17.2693V8.11728H101.088V10.0693C101.504 8.82128 102.56 7.95728 104.224 7.95728C106.816 7.95728 108.032 9.47728 108.032 12.3733V17.2693H106.784V12.4533C106.784 10.1813 105.888 9.09328 103.92 9.09328C101.92 9.09328 101.088 10.4213 101.088 12.7253V17.2693H99.84Z" fill="#212323" style="fill:#212323;fill:color(display-p3 0.1294 0.1373 0.1373);fill-opacity:1;"/>
<path d="M93.26 17.4453C90.444 17.4453 88.62 15.5573 88.62 12.6933C88.62 9.87728 90.476 7.94128 93.18 7.94128C96.012 7.94128 97.756 9.95728 97.564 12.9333H89.868C89.916 15.0613 91.212 16.3413 93.276 16.3413C94.732 16.3413 95.676 15.7973 96.252 14.7573L97.404 15.0133C96.62 16.5973 95.26 17.4453 93.26 17.4453ZM89.916 11.8773H96.364C96.252 10.1173 95.068 8.99728 93.196 8.99728C91.404 8.99728 90.14 10.0693 89.916 11.8773Z" fill="#212323" style="fill:#212323;fill:color(display-p3 0.1294 0.1373 0.1373);fill-opacity:1;"/>
</g>
<defs>
<clipPath id="clip0_4424_16076">
<rect width="83.62" height="22.6266" fill="white" style="fill:white;fill-opacity:1;"/>
</clipPath>
<clipPath id="clip1_4424_16076">
<rect width="83.62" height="22.6266" fill="white" style="fill:white;fill-opacity:1;"/>
</clipPath>
<clipPath id="clip2_4424_16076">
<rect width="95.5158" height="16.44" fill="white" style="fill:white;fill-opacity:1;" transform="translate(88.62 5.14124)"/>
</clipPath>
</defs>
</svg>
