<?xml version="1.0" encoding="utf-8"?>
<!-- Generator: Adobe Illustrator 27.9.0, SVG Export Plug-In . SVG Version: 6.00 Build 0)  -->
<svg version="1.1" id="Camada_1" xmlns="http://www.w3.org/2000/svg" xmlns:xlink="http://www.w3.org/1999/xlink" x="0px" y="0px"
	 viewBox="0 0 845.4 240.4" style="enable-background:new 0 0 845.4 240.4;" xml:space="preserve">
<style type="text/css">
	.st0{fill:#FFFFFF;}
	.st1{fill:#0FC2C0;}
</style>
<g>
	<g id="Layer_1">
		<g>
			<path class="st0" d="M583.3,75.8l-28.2,1.7c-0.1,0-0.2,0.1-0.2,0.2v103.7c0,0.1,0.1,0.2,0.2,0.2h28.2c0.1,0,0.2-0.1,0.2-0.2V76
				C583.6,75.9,583.5,75.8,583.3,75.8L583.3,75.8z"/>
			<path class="st0" d="M569.2,38.2c-13.5,0-15.7,5.2-15.7,14.4c0,8.1,2.2,14.2,15.7,14.2s15.7-6.1,15.7-14.2
				C584.9,43.5,582.1,38.2,569.2,38.2z"/>
			<path class="st0" d="M504.3,75.1c-6.1,0-22.1,0-36.6,8.7c0,0,0,0,0,0c-1.4,0.7-2.7,1.5-4,2.4c-5.2-7.4-14.6-11.1-27.6-11.1
				c-4.8,0-19.7,0.9-34.1,7.9v-7c0-0.1-0.1-0.2-0.2-0.2l-28.2,1.7c-0.1,0-0.2,0.1-0.2,0.2v103.7c0,0.1,0.1,0.2,0.2,0.2h28.2
				c0.1,0,0.2-0.1,0.2-0.2v-81c8.6-3.7,16.9-3.7,22.3-3.7c10.2,0,16.6,4.8,16.6,16.2v68.5c0,0.1,0.1,0.2,0.2,0.2h27.2
				c0.1,0,0.2-0.1,0.2-0.2v-77.5c0-1,0-2-0.1-2.9c9-4.2,17.8-4.2,23.4-4.2c0.3,0,0.6,0,0.9,0c8.7,0.3,15.3,4.8,15.7,15.1
				c0,0.3,0,0.7,0,1.1l-1.3,68.5c0,0.1,0.1,0.2,0.2,0.2h28.2c0.1,0,0.2-0.1,0.2-0.2v-77.5C535.9,84.6,524,75.1,504.3,75.1
				L504.3,75.1z"/>
			<path class="st0" d="M789.6,154.8c-11.1,5.9-19.1,9.3-34.5,9.3c-26.4,0-27.4-16-27.4-36.5s1.7-34.4,25.7-34.4
				c12.4,0,22.7,1.7,34.5,5.3c0.2,0.1,0.3-0.1,0.3-0.2l1.7-17c0-0.1,0-0.2-0.1-0.2c-8.8-4.1-19.2-7.7-36.4-7.7
				c-37.6,0-53.4,24.6-53.4,54.2c0,31.1,12.1,55.8,50.3,55.8c18.9,0,34-6.4,41.8-12.4c0.1-0.1,0.1-0.1,0.1-0.2L790,155
				C790,154.8,789.8,154.7,789.6,154.8L789.6,154.8z"/>
			<path class="st0" d="M822.7,66.8c12.9,0,15.7-6.1,15.7-14.2c0-9.2-2.8-14.4-15.7-14.4c-13.5,0-15.7,5.2-15.7,14.4
				C807,60.7,809.1,66.8,822.7,66.8z"/>
			<path class="st0" d="M836.8,75.8l-28.2,1.7c-0.1,0-0.2,0.1-0.2,0.2v103.7c0,0.1,0.1,0.2,0.2,0.2h28.2c0.1,0,0.2-0.1,0.2-0.2V76
				C837.1,75.9,836.9,75.8,836.8,75.8L836.8,75.8z"/>
			<path class="st0" d="M687.9,154.8c-11.1,5.9-19.3,9.3-34.9,9.3c-26.4,0-27-16-27-36.5s1.3-34.4,25.9-34.4
				c12.2,0,21.9,1.7,33.6,5.3c0.2,0,0.3-0.1,0.3-0.2l2.3-17c0-0.1,0-0.2-0.1-0.2c-8.8-4.1-19.4-7.7-36.1-7.7
				c-38.2,0-53.2,24.6-53.2,54.2c0,31.1,11.2,55.8,50.1,55.8c19.1,0,34-6.4,41.6-12.4c0.1-0.1,0.1-0.1,0.1-0.2l-2.3-15.7
				C688.2,154.8,688,154.7,687.9,154.8L687.9,154.8z"/>
			<path class="st0" d="M353.9,83.2c-8.9-4.1-26.1-9.8-42.8-9.8c-38.2,0-60.9,16.4-60.9,57c0,37.4,17.7,53.2,40.8,53.2
				c4.9,0,19.9-0.9,34.4-8.1v6.5c0,0.1,0.1,0.2,0.2,0.2h28.2c0.1,0,0.2-0.1,0.2-0.2V83.6C354.1,83.4,354,83.3,353.9,83.2L353.9,83.2
				z M302.9,162c-14.7,0-22.7-8.4-22.7-31.8s6.3-36.9,30.9-36.9c5.1,0,9.7,0.3,14.3,0.9V158C316.7,161.6,308.4,162,302.9,162z"/>
			<path class="st1" d="M177.5,70.9v73.7c0,2.2-1.1,3.5-2.5,4.1c-10.5,4-42.2,16-42.2,16c-0.2,0.1-0.5-0.1-0.5-0.3V105
				c-44.2,24.9-74.8,40.7-74.8,67c0,22.2,18.5,30.1,56.5,19.9c17.3-4.6,53.6-23,81.4-37.9c0.2-0.1,0.5,0.1,0.5,0.3v16.4
				c0,0.1,0,0.2-0.1,0.3c-3.1,2.8-67.8,61.1-113.9,63C45.5,235.7,7,219.9,7,166.5c0-49.7,73.8-87.6,101.2-100l-70-17.3
				c-0.2,0-0.3-0.2-0.3-0.4l7-42.4c0-0.2,0.2-0.3,0.4-0.3c5.4,1.4,66.8,17.2,96.2,24.8C163.7,36.7,177.5,45.8,177.5,70.9L177.5,70.9
				z"/>
		</g>
	</g>
</g>
</svg>
