<svg width="158" height="23" viewBox="0 0 158 23" fill="none" xmlns="http://www.w3.org/2000/svg">
<rect width="158" height="22.6266" fill="white" style="fill:white;fill-opacity:1;"/>
<g clip-path="url(#clip0_4424_16076)">
<g clip-path="url(#clip1_4424_16076)">
<path d="M57.6989 7.13401L54.9047 7.29403C54.8918 7.29403 54.8819 7.30532 54.8819 7.31756V17.0759C54.8819 17.089 54.8928 17.0994 54.9066 17.0994H57.7009C57.7148 17.0994 57.7256 17.089 57.7256 17.0759V7.15754C57.7256 7.14436 57.7128 7.13401 57.6989 7.13401Z" fill="#016071" style="fill:#016071;fill:color(display-p3 0.0039 0.3765 0.4431);fill-opacity:1;"/>
<path d="M56.3033 3.59949C54.965 3.59949 54.7494 4.09272 54.7494 4.95494C54.7494 5.71455 54.965 6.29062 56.3033 6.29062C57.6416 6.29062 57.8572 5.71549 57.8572 4.95494C57.8572 4.09178 57.5763 3.59949 56.3033 3.59949Z" fill="#016071" style="fill:#016071;fill:color(display-p3 0.0039 0.3765 0.4431);fill-opacity:1;"/>
<path d="M49.8809 7.07094C49.2765 7.07094 47.6969 7.07094 46.2626 7.89174C46.2626 7.89174 46.2616 7.89174 46.2607 7.89268C46.1251 7.9614 45.9916 8.03576 45.8601 8.11671C45.3447 7.41828 44.4179 7.07094 43.1281 7.07094C42.6503 7.07094 41.1775 7.15472 39.7512 7.81832V7.1566C39.7512 7.14342 39.7403 7.13307 39.7265 7.13307L36.9322 7.29309C36.9193 7.29309 36.9094 7.30344 36.9094 7.31662V17.0749C36.9094 17.0881 36.9203 17.0984 36.9332 17.0984H39.7275C39.7403 17.0984 39.7512 17.0881 39.7512 17.0749V9.45145C40.5999 9.10506 41.4179 9.10506 41.953 9.10506C42.958 9.10506 43.5989 9.55217 43.5989 10.6299V17.0749C43.5989 17.0881 43.6098 17.0984 43.6236 17.0984H46.3101C46.323 17.0984 46.3348 17.0881 46.3348 17.0749V9.77619C46.3348 9.68207 46.3319 9.59076 46.3249 9.50134C47.2142 9.10506 48.0836 9.10506 48.6435 9.10506C48.6751 9.10506 48.7058 9.10506 48.7364 9.106C49.6009 9.13424 50.2459 9.5597 50.2864 10.5311C50.2874 10.564 50.2884 10.597 50.2884 10.6309L50.1608 17.0759C50.1608 17.0881 50.1717 17.0994 50.1855 17.0994H52.9788C52.9917 17.0994 53.0035 17.089 53.0035 17.0759V9.77714C53.0035 7.96705 51.8285 7.07188 49.8828 7.07188L49.8809 7.07094Z" fill="#016071" style="fill:#016071;fill:color(display-p3 0.0039 0.3765 0.4431);fill-opacity:1;"/>
<path d="M78.1047 14.572C77.0097 15.1321 76.2184 15.4512 74.6942 15.4512C72.0868 15.4512 71.98 13.9461 71.98 12.0136C71.98 10.0812 72.1511 8.77937 74.523 8.77937C75.7525 8.77937 76.7713 8.93939 77.9355 9.2792C77.9504 9.2839 77.9652 9.27449 77.9672 9.25943L78.1343 7.65642C78.1343 7.64701 78.1294 7.63665 78.1205 7.63289C77.2481 7.24979 76.2233 6.90716 74.524 6.90716C70.8059 6.90716 69.245 9.22554 69.245 12.0127C69.245 14.941 70.4419 17.2603 74.2253 17.2603C76.0967 17.2603 77.5883 16.656 78.3609 16.0894C78.3678 16.0837 78.3707 16.0762 78.3698 16.0677L78.1413 14.589C78.1393 14.573 78.1195 14.5645 78.1047 14.572Z" fill="#016071" style="fill:#016071;fill:color(display-p3 0.0039 0.3765 0.4431);fill-opacity:1;"/>
<path d="M81.3738 6.29062C82.6478 6.29062 82.9277 5.71549 82.9277 4.95494C82.9277 4.09178 82.6468 3.59949 81.3738 3.59949C80.0355 3.59949 79.8198 4.09272 79.8198 4.95494C79.8198 5.71455 80.0355 6.29062 81.3738 6.29062Z" fill="#016071" style="fill:#016071;fill:color(display-p3 0.0039 0.3765 0.4431);fill-opacity:1;"/>
<path d="M82.7694 7.13401L79.9751 7.29403C79.9623 7.29403 79.9524 7.30532 79.9524 7.31756V17.0759C79.9524 17.089 79.9633 17.0994 79.9771 17.0994H82.7714C82.7852 17.0994 82.7961 17.089 82.7961 17.0759V7.15754C82.7961 7.14436 82.7833 7.13401 82.7694 7.13401Z" fill="#016071" style="fill:#016071;fill:color(display-p3 0.0039 0.3765 0.4431);fill-opacity:1;"/>
<path d="M68.0383 14.572C66.9423 15.1321 66.1313 15.4512 64.5862 15.4512C61.9779 15.4512 61.9146 13.9461 61.9146 12.0136C61.9146 10.0812 62.0432 8.77937 64.4794 8.77937C65.6881 8.77937 66.6436 8.93939 67.8069 9.28014C67.8217 9.2839 67.8365 9.27543 67.8385 9.26037L68.068 7.65736C68.069 7.64701 68.064 7.6376 68.0541 7.63383C67.1817 7.25073 66.1372 6.9081 64.4804 6.9081C60.697 6.9081 59.2232 9.22648 59.2232 12.0136C59.2232 14.942 60.334 17.2613 64.1817 17.2613C66.0749 17.2613 67.5447 16.657 68.2955 16.0903C68.3024 16.0847 68.3064 16.0772 68.3044 16.0687L68.0769 14.589C68.0739 14.5739 68.0561 14.5654 68.0403 14.572H68.0383Z" fill="#016071" style="fill:#016071;fill:color(display-p3 0.0039 0.3765 0.4431);fill-opacity:1;"/>
<path d="M35.0073 7.83621C34.125 7.45028 32.4287 6.90904 30.7738 6.90904C26.9904 6.90904 24.7461 8.45463 24.7461 12.2791C24.7461 15.7976 26.4988 17.282 28.7857 17.282C29.2654 17.282 30.7511 17.1973 32.1843 16.5243V17.1361C32.1843 17.1493 32.1952 17.1596 32.2091 17.1596H35.0024C35.0162 17.1596 35.0271 17.1493 35.0271 17.1361V7.86539C35.0271 7.85221 35.0192 7.84186 35.0073 7.83621ZM29.9618 15.2479C28.5087 15.2479 27.7174 14.4544 27.7174 12.2584C27.7174 10.0623 28.3376 8.78032 30.7738 8.78032C31.2773 8.78032 31.7353 8.80761 32.1843 8.86503V14.8676C31.3288 15.2121 30.5008 15.2479 29.9618 15.2479Z" fill="#016071" style="fill:#016071;fill:color(display-p3 0.0039 0.3765 0.4431);fill-opacity:1;"/>
<path d="M17.5551 6.67465V13.6157C17.5551 13.8275 17.4502 13.9451 17.3068 13.9969C16.2702 14.3706 13.1317 15.5001 13.1317 15.5001C13.1089 15.5086 13.0842 15.4926 13.0842 15.4691V9.88066C8.71424 12.2245 5.68354 13.7107 5.68354 16.191C5.68354 18.2779 7.51047 19.0252 11.2711 18.067C12.9843 17.6303 16.5689 15.9021 19.3187 14.5024C19.3424 14.4901 19.3701 14.5071 19.3701 14.5315V16.0781C19.3701 16.0875 19.3662 16.096 19.3592 16.1026C19.0566 16.3642 12.6529 21.8491 8.09207 22.0364C4.49659 22.1842 0.691406 20.6988 0.691406 15.6752C0.691406 10.9961 7.9892 7.42768 10.6974 6.26425L3.77057 4.63677C3.75276 4.633 3.74188 4.61606 3.74485 4.59912L4.43922 0.610898C4.44219 0.592072 4.46197 0.578894 4.48175 0.5836C5.01588 0.714439 11.0862 2.20355 14.0011 2.91987C16.1871 3.4564 17.5551 4.30732 17.5551 6.67559V6.67465Z" fill="#0FC2C0" style="fill:#0FC2C0;fill:color(display-p3 0.0588 0.7608 0.7529);fill-opacity:1;"/>
</g>
</g>
<g clip-path="url(#clip2_4424_16076)">
<g clip-path="url(#clip3_4424_16076)">
<path d="M154.079 17.4293C152.095 17.4293 150.463 16.5333 149.807 15.1413L150.943 14.7733C151.503 15.7493 152.623 16.3093 154.079 16.3093C155.743 16.3093 156.703 15.7013 156.703 14.6773C156.703 12.2773 150.303 14.1333 150.303 10.4853C150.303 8.98128 151.855 7.95728 153.967 7.95728C155.583 7.95728 157.103 8.74127 157.727 9.89328L156.639 10.2933C156.127 9.52528 155.135 9.04528 153.983 9.04528C152.479 9.04528 151.551 9.60527 151.551 10.5173C151.551 12.9173 157.967 11.0293 157.967 14.6613C157.967 16.3413 156.447 17.4293 154.079 17.4293Z" fill="#212323" style="fill:#212323;fill:color(display-p3 0.1294 0.1373 0.1373);fill-opacity:1;"/>
<path d="M144.102 17.4453C141.286 17.4453 139.462 15.5573 139.462 12.6933C139.462 9.87728 141.318 7.94128 144.022 7.94128C146.854 7.94128 148.598 9.95728 148.406 12.9333H140.71C140.758 15.0613 142.054 16.3413 144.118 16.3413C145.574 16.3413 146.518 15.7973 147.094 14.7573L148.246 15.0133C147.462 16.5973 146.102 17.4453 144.102 17.4453ZM140.758 11.8773H147.206C147.094 10.1173 145.91 8.99728 144.038 8.99728C142.246 8.99728 140.982 10.0693 140.758 11.8773Z" fill="#212323" style="fill:#212323;fill:color(display-p3 0.1294 0.1373 0.1373);fill-opacity:1;"/>
<path d="M137.422 17.3972C135.166 17.3972 134.206 16.3572 134.206 13.5412V9.14118H132.846V8.11718H134.206V6.40518L135.486 6.13318V8.11718H138.35V9.14118H135.486V13.4292C135.486 15.6052 136.014 16.3412 137.566 16.3412C137.742 16.3412 137.934 16.3252 138.302 16.2612L138.478 17.2852C138.142 17.3492 137.71 17.3972 137.422 17.3972Z" fill="#212323" style="fill:#212323;fill:color(display-p3 0.1294 0.1373 0.1373);fill-opacity:1;"/>
<path d="M126.247 17.4773C123.975 17.4773 121.927 15.9413 121.927 12.6933C121.927 9.47728 123.975 7.94128 126.231 7.94128C127.783 7.94128 129.159 8.70928 129.735 10.2293V8.11728H130.999V17.2533H129.735V15.2053C129.175 16.7093 127.799 17.4773 126.247 17.4773ZM126.487 16.3573C128.455 16.3573 129.767 14.9493 129.767 12.6933C129.767 10.4533 128.439 9.06128 126.455 9.06128C124.487 9.06128 123.175 10.4373 123.175 12.6933C123.175 14.9653 124.487 16.3573 126.487 16.3573Z" fill="#212323" style="fill:#212323;fill:color(display-p3 0.1294 0.1373 0.1373);fill-opacity:1;"/>
<path d="M114.8 17.4772C112.528 17.4772 110.48 15.9412 110.48 12.6932C110.48 9.47724 112.528 7.94124 114.784 7.94124C116.336 7.94124 117.728 8.70923 118.288 10.2292V5.14124H119.552V17.2532H118.288V15.2052C117.728 16.7092 116.352 17.4772 114.8 17.4772ZM115.04 16.3572C117.024 16.3572 118.32 14.9492 118.32 12.6932C118.32 10.4532 117.008 9.06124 115.008 9.06124C113.04 9.06124 111.728 10.4372 111.728 12.6932C111.728 14.9652 113.04 16.3572 115.04 16.3572Z" fill="#212323" style="fill:#212323;fill:color(display-p3 0.1294 0.1373 0.1373);fill-opacity:1;"/>
<path d="M99.4784 20.2292V8.11718H100.726V10.1652C101.286 8.69318 102.63 7.90918 104.246 7.90918C106.422 7.90918 108.55 9.36518 108.55 12.6772C108.55 15.9732 106.406 17.4132 104.23 17.4132C102.63 17.4132 101.286 16.6292 100.726 15.1572V20.2292H99.4784ZM103.99 16.3092C105.974 16.3092 107.286 14.9172 107.286 12.6772C107.286 10.4212 105.99 9.01318 104.022 9.01318C102.022 9.01318 100.71 10.4052 100.71 12.6772C100.71 14.9332 102.022 16.3092 103.99 16.3092Z" fill="#212323" style="fill:#212323;fill:color(display-p3 0.1294 0.1373 0.1373);fill-opacity:1;"/>
<path d="M92.428 17.4292C89.836 17.4292 88.62 15.9092 88.62 13.0292V8.11719H89.868V12.9492C89.868 15.2052 90.732 16.2932 92.716 16.2932C94.716 16.2932 95.548 14.9652 95.548 12.6612V8.11719H96.796V17.2692H95.548V15.3172C95.148 16.5652 94.076 17.4292 92.428 17.4292Z" fill="#212323" style="fill:#212323;fill:color(display-p3 0.1294 0.1373 0.1373);fill-opacity:1;"/>
</g>
</g>
<defs>
<clipPath id="clip0_4424_16076">
<rect width="83.62" height="22.6266" fill="white" style="fill:white;fill-opacity:1;"/>
</clipPath>
<clipPath id="clip1_4424_16076">
<rect width="83.62" height="22.6266" fill="white" style="fill:white;fill-opacity:1;"/>
</clipPath>
<clipPath id="clip2_4424_16076">
<rect width="69.3471" height="17.088" fill="white" style="fill:white;fill-opacity:1;" transform="translate(88.62 3.14124)"/>
</clipPath>
<clipPath id="clip3_4424_16076">
<rect width="69.3471" height="15.088" fill="white" style="fill:white;fill-opacity:1;" transform="translate(88.62 5.14124)"/>
</clipPath>
</defs>
</svg>
