<?xml version="1.0" encoding="UTF-8"?>
<svg xmlns="http://www.w3.org/2000/svg" version="1.1" viewBox="0 0 200.67 235.44">
  <defs>
    <style>
      .cls-1 {
        fill: #016071;
      }
    </style>
  </defs>
  <!-- Generator: Adobe Illustrator 28.6.0, SVG Export Plug-In . SVG Version: 1.2.0 Build 709)  -->
  <g>
    <g id="Layer_1">
      <path class="cls-1" d="M176.4,68.44v73.74c0,2.25-1.06,3.5-2.51,4.05-10.48,3.97-42.21,15.97-42.21,15.97-.23.09-.48-.08-.48-.33v-59.37c-44.18,24.9-74.82,40.69-74.82,67.04,0,22.17,18.47,30.11,56.49,19.93,17.32-4.64,53.56-23,81.36-37.87.24-.13.52.05.52.31v16.43c0,.1-.04.19-.11.26-3.06,2.78-67.8,61.05-113.91,63.04-36.35,1.57-74.82-14.21-74.82-67.58,0-49.71,73.78-87.62,101.16-99.98l-70.03-17.29c-.18-.04-.29-.22-.26-.4l7.02-42.37c.03-.2.23-.34.43-.29,5.4,1.39,66.77,17.21,96.24,24.82,22.1,5.7,35.93,14.74,35.93,39.9Z"/>
    </g>
  </g>
</svg>