<?xml version="1.0" encoding="UTF-8"?>
<svg xmlns="http://www.w3.org/2000/svg" version="1.1" viewBox="0 0 845.39 240.38">
  <defs>
    <style>
      .cls-1 {
        fill: #016071;
      }

      .cls-2 {
        fill: #fff;
      }
    </style>
  </defs>
  <!-- Generator: Adobe Illustrator 28.6.0, SVG Export Plug-In . SVG Version: 1.2.0 Build 709)  -->
  <g>
    <g id="Layer_1">
      <g>
        <path class="cls-1" d="M583.33,75.79l-28.25,1.7c-.13,0-.23.12-.23.25v103.67c0,.14.11.25.25.25h28.25c.14,0,.25-.11.25-.25v-105.37c0-.14-.12-.25-.26-.25Z"/>
        <path class="cls-1" d="M569.22,38.24c-13.53,0-15.71,5.24-15.71,14.4,0,8.07,2.18,14.19,15.71,14.19s15.71-6.11,15.71-14.19c0-9.17-2.84-14.4-15.71-14.4Z"/>
        <path class="cls-1" d="M504.29,75.12c-6.11,0-22.08,0-36.58,8.72,0,0-.01,0-.02.01-1.37.73-2.72,1.52-4.05,2.38-5.21-7.42-14.58-11.11-27.62-11.11-4.83,0-19.72.89-34.14,7.94v-7.03c0-.14-.11-.25-.25-.25l-28.25,1.7c-.13,0-.23.11-.23.25v103.67c0,.14.11.25.24.25h28.25c.13,0,.24-.11.24-.25v-80.99c8.58-3.68,16.85-3.68,22.26-3.68,10.16,0,16.64,4.75,16.64,16.2v68.47c0,.14.11.25.25.25h27.16c.13,0,.25-.11.25-.25v-77.54c0-1-.03-1.97-.1-2.92,8.99-4.21,17.78-4.21,23.44-4.21.32,0,.63,0,.94.01,8.74.3,15.26,4.82,15.67,15.14.01.35.02.7.02,1.06l-1.29,68.47c0,.13.11.25.25.25h28.24c.13,0,.25-.11.25-.25v-77.54c0-19.23-11.88-28.74-31.55-28.74Z"/>
        <path class="cls-1" d="M789.63,154.81c-11.07,5.95-19.07,9.34-34.48,9.34-26.36,0-27.44-15.99-27.44-36.52s1.73-34.36,25.71-34.36c12.43,0,22.73,1.7,34.5,5.31.15.05.3-.05.32-.21l1.69-17.03c0-.1-.05-.21-.14-.25-8.82-4.07-19.18-7.71-36.36-7.71-37.59,0-53.37,24.63-53.37,54.24,0,31.11,12.1,55.75,50.35,55.75,18.92,0,34-6.42,41.81-12.44.07-.06.1-.14.09-.23l-2.31-15.71c-.02-.17-.21-.26-.36-.18Z"/>
        <path class="cls-1" d="M822.68,66.83c12.88,0,15.71-6.11,15.71-14.19,0-9.17-2.84-14.4-15.71-14.4-13.53,0-15.71,5.24-15.71,14.4,0,8.07,2.18,14.19,15.71,14.19Z"/>
        <path class="cls-1" d="M836.79,75.79l-28.25,1.7c-.13,0-.23.12-.23.25v103.67c0,.14.11.25.25.25h28.25c.14,0,.25-.11.25-.25v-105.37c0-.14-.12-.25-.26-.25Z"/>
        <path class="cls-1" d="M687.86,154.81c-11.08,5.95-19.28,9.34-34.9,9.34-26.37,0-27.01-15.99-27.01-36.52s1.3-34.36,25.93-34.36c12.22,0,21.88,1.7,33.64,5.32.15.04.3-.05.32-.21l2.32-17.03c.01-.11-.04-.21-.14-.25-8.82-4.07-19.38-7.71-36.13-7.71-38.25,0-53.15,24.63-53.15,54.24,0,31.11,11.23,55.75,50.13,55.75,19.14,0,34-6.42,41.59-12.44.07-.06.11-.14.09-.23l-2.3-15.72c-.03-.16-.21-.25-.37-.18Z"/>
        <path class="cls-1" d="M353.92,83.25c-8.92-4.1-26.07-9.85-42.8-9.85-38.25,0-60.94,16.42-60.94,57.05,0,37.38,17.72,53.15,40.84,53.15,4.85,0,19.87-.9,34.36-8.05v6.5c0,.14.11.25.25.25h28.24c.14,0,.25-.11.25-.25v-98.49c0-.14-.08-.26-.2-.32ZM302.91,161.99c-14.69,0-22.69-8.43-22.69-31.76s6.27-36.95,30.9-36.95c5.09,0,9.72.29,14.26.9v63.77c-8.65,3.66-17.02,4.04-22.47,4.04Z"/>
        <path class="cls-2" d="M177.48,70.91v73.74c0,2.25-1.06,3.5-2.51,4.05-10.48,3.97-42.21,15.97-42.21,15.97-.23.09-.48-.08-.48-.33v-59.37c-44.18,24.9-74.82,40.69-74.82,67.04,0,22.17,18.47,30.11,56.49,19.93,17.32-4.64,53.56-23,81.36-37.87.24-.13.52.05.52.31v16.43c0,.1-.04.19-.11.26-3.06,2.78-67.8,61.05-113.91,63.04-36.35,1.57-74.82-14.21-74.82-67.58,0-49.71,73.78-87.62,101.16-99.98l-70.03-17.29c-.18-.04-.29-.22-.26-.4l7.02-42.37c.03-.2.23-.34.43-.29,5.4,1.39,66.77,17.21,96.24,24.82,22.1,5.7,35.93,14.74,35.93,39.9Z"/>
      </g>
    </g>
  </g>
</svg>