<svg width="105" height="28" viewBox="0 0 105 28" fill="none" xmlns="http://www.w3.org/2000/svg">
<path fill-rule="evenodd" clip-rule="evenodd" d="M21.2647 8.16663V12.862H15.3868V11.5246L21.2647 8.16663Z" fill="#014361" style="fill:#014361;fill:color(display-p3 0.0039 0.2627 0.3804);fill-opacity:1;"/>
<path opacity="0.9" fill-rule="evenodd" clip-rule="evenodd" d="M21.2635 8.16678L15.3856 11.5247L11.0515 9.04926V2.33337L21.2635 8.16678Z" fill="#014361" style="fill:#014361;fill:color(display-p3 0.0039 0.2627 0.3804);fill-opacity:1;"/>
<path opacity="0.8" fill-rule="evenodd" clip-rule="evenodd" d="M11.0529 2.33337V9.04926L6.72013 11.5247L0.842285 8.16678L11.0529 2.33337Z" fill="#014361" style="fill:#014361;fill:color(display-p3 0.0039 0.2627 0.3804);fill-opacity:1;"/>
<path opacity="0.7" fill-rule="evenodd" clip-rule="evenodd" d="M6.71903 11.5247V16.4753L0.841187 19.833V8.16675L6.71903 11.5247Z" fill="#014361" style="fill:#014361;fill:color(display-p3 0.0039 0.2627 0.3804);fill-opacity:1;"/>
<path opacity="0.6" fill-rule="evenodd" clip-rule="evenodd" d="M11.0518 18.9508V25.6667L0.841187 19.833L6.71903 16.4753L11.0518 18.9508Z" fill="#014361" style="fill:#014361;fill:color(display-p3 0.0039 0.2627 0.3804);fill-opacity:1;"/>
<path opacity="0.5" fill-rule="evenodd" clip-rule="evenodd" d="M21.2635 19.833L11.0515 25.6667V18.9508L15.3856 16.4753L21.2635 19.833Z" fill="#014361" style="fill:#014361;fill:color(display-p3 0.0039 0.2627 0.3804);fill-opacity:1;"/>
<path opacity="0.4" fill-rule="evenodd" clip-rule="evenodd" d="M21.2647 15.1379V19.833L15.3868 16.4754V15.1379H21.2647Z" fill="#014361" style="fill:#014361;fill:color(display-p3 0.0039 0.2627 0.3804);fill-opacity:1;"/>
<path d="M104.798 16.3057C104.798 16.9422 104.705 17.5274 104.518 18.0613C104.331 18.5849 104.062 19.0366 103.709 19.4165C103.356 19.7861 102.931 20.0736 102.432 20.2789C101.945 20.4842 101.395 20.5869 100.783 20.5869C100.181 20.5869 99.6308 20.4842 99.1327 20.2789C98.645 20.0736 98.2248 19.7861 97.872 19.4165C97.5192 19.0366 97.2442 18.5849 97.0471 18.0613C96.8499 17.5274 96.7513 16.9422 96.7513 16.3057C96.7513 15.6692 96.8499 15.0891 97.0471 14.5655C97.2546 14.0419 97.5348 13.5953 97.8876 13.2257C98.2507 12.8561 98.6762 12.5686 99.1639 12.3633C99.6619 12.158 100.202 12.0553 100.783 12.0553C101.374 12.0553 101.914 12.158 102.401 12.3633C102.899 12.5686 103.325 12.8561 103.678 13.2257C104.03 13.5953 104.305 14.0419 104.503 14.5655C104.7 15.0891 104.798 15.6692 104.798 16.3057ZM102.432 16.3057C102.432 15.5973 102.287 15.0429 101.997 14.6425C101.716 14.2318 101.312 14.0265 100.783 14.0265C100.253 14.0265 99.8435 14.2318 99.553 14.6425C99.2624 15.0429 99.1172 15.5973 99.1172 16.3057C99.1172 17.0141 99.2624 17.5788 99.553 17.9997C99.8435 18.4104 100.253 18.6157 100.783 18.6157C101.312 18.6157 101.716 18.4104 101.997 17.9997C102.287 17.5788 102.432 17.0141 102.432 16.3057Z" fill="#0C1B1D" style="fill:#0C1B1D;fill:color(display-p3 0.0471 0.1059 0.1137);fill-opacity:1;"/>
<path d="M89.8048 16.0595C89.8048 17.3428 90.3288 17.9845 91.3768 17.9845C91.6155 17.9845 91.8386 17.9537 92.0461 17.8921C92.2536 17.8305 92.43 17.7586 92.5753 17.6765V14.0113C92.4612 13.9908 92.3263 13.9754 92.1706 13.9651C92.015 13.9446 91.8334 13.9343 91.6258 13.9343C91.0136 13.9343 90.5571 14.1345 90.2562 14.5349C89.9552 14.9353 89.8048 15.4435 89.8048 16.0595ZM94.8944 19.3551C94.8944 20.6795 94.552 21.66 93.8672 22.2965C93.1927 22.9433 92.1447 23.2667 90.7231 23.2667C90.225 23.2667 89.727 23.2205 89.2289 23.1281C88.7308 23.046 88.2691 22.933 87.8436 22.7893L88.2483 20.8643C88.6115 21.008 88.9902 21.121 89.3845 21.2031C89.7892 21.2852 90.2458 21.3263 90.7542 21.3263C91.4183 21.3263 91.8853 21.1826 92.155 20.8951C92.4352 20.6076 92.5753 20.238 92.5753 19.7863V19.4937C92.3263 19.6066 92.0668 19.6939 91.7971 19.7555C91.5377 19.8068 91.2523 19.8325 90.941 19.8325C89.81 19.8325 88.9435 19.504 88.3417 18.8469C87.7399 18.1796 87.439 17.2504 87.439 16.0595C87.439 15.464 87.5324 14.925 87.7191 14.4425C87.9059 13.9497 88.1757 13.5288 88.5285 13.1797C88.8917 12.8306 89.3327 12.5637 89.8515 12.3789C90.3703 12.1838 90.9566 12.0863 91.6103 12.0863C91.8905 12.0863 92.1758 12.1017 92.4663 12.1325C92.7673 12.153 93.063 12.1838 93.3535 12.2249C93.6441 12.266 93.919 12.3173 94.1784 12.3789C94.4482 12.4302 94.6869 12.4867 94.8944 12.5483V19.3551Z" fill="#0C1B1D" style="fill:#0C1B1D;fill:color(display-p3 0.0471 0.1059 0.1137);fill-opacity:1;"/>
<path d="M85.9609 16.3057C85.9609 16.9422 85.8675 17.5274 85.6807 18.0613C85.4939 18.5849 85.2241 19.0366 84.8713 19.4165C84.5185 19.7861 84.0931 20.0736 83.595 20.2789C83.1073 20.4842 82.5574 20.5869 81.9452 20.5869C81.3434 20.5869 80.7934 20.4842 80.2953 20.2789C79.8076 20.0736 79.3874 19.7861 79.0346 19.4165C78.6818 19.0366 78.4068 18.5849 78.2097 18.0613C78.0125 17.5274 77.9139 16.9422 77.9139 16.3057C77.9139 15.6692 78.0125 15.0891 78.2097 14.5655C78.4172 14.0419 78.6974 13.5953 79.0502 13.2257C79.4133 12.8561 79.8388 12.5686 80.3265 12.3633C80.8245 12.158 81.3641 12.0553 81.9452 12.0553C82.5366 12.0553 83.0762 12.158 83.5639 12.3633C84.062 12.5686 84.4874 12.8561 84.8402 13.2257C85.193 13.5953 85.468 14.0419 85.6651 14.5655C85.8623 15.0891 85.9609 15.6692 85.9609 16.3057ZM83.595 16.3057C83.595 15.5973 83.4498 15.0429 83.1592 14.6425C82.8791 14.2318 82.4744 14.0265 81.9452 14.0265C81.416 14.0265 81.0061 14.2318 80.7156 14.6425C80.425 15.0429 80.2798 15.5973 80.2798 16.3057C80.2798 17.0141 80.425 17.5788 80.7156 17.9997C81.0061 18.4104 81.416 18.6157 81.9452 18.6157C82.4744 18.6157 82.8791 18.4104 83.1592 17.9997C83.4498 17.5788 83.595 17.0141 83.595 16.3057Z" fill="#0C1B1D" style="fill:#0C1B1D;fill:color(display-p3 0.0471 0.1059 0.1137);fill-opacity:1;"/>
<path d="M76.5762 20.5254C75.9017 20.5152 75.3518 20.4433 74.9263 20.3098C74.5113 20.1764 74.1792 19.9916 73.9302 19.7554C73.6915 19.509 73.5255 19.2164 73.4321 18.8776C73.3491 18.5286 73.3076 18.1384 73.3076 17.7072V8.79062L75.6267 8.42102V17.2452C75.6267 17.4506 75.6423 17.6354 75.6734 17.7996C75.7046 17.9639 75.7616 18.1025 75.8447 18.2154C75.938 18.3284 76.0677 18.4208 76.2338 18.4926C76.3998 18.5645 76.6229 18.6107 76.903 18.6312L76.5762 20.5254Z" fill="#0C1B1D" style="fill:#0C1B1D;fill:color(display-p3 0.0471 0.1059 0.1137);fill-opacity:1;"/>
<path d="M66.2432 10.2536L68.5623 9.88403V12.271H71.3484V14.1806H68.5623V17.0296C68.5623 17.5122 68.6453 17.8972 68.8113 18.1846C68.9877 18.4721 69.3353 18.6158 69.8542 18.6158C70.1032 18.6158 70.3574 18.5953 70.6168 18.5542C70.8866 18.5029 71.1305 18.4362 71.3484 18.354L71.6752 20.1404C71.3951 20.2534 71.0838 20.3509 70.7413 20.433C70.3989 20.5152 69.9787 20.5562 69.4806 20.5562C68.8476 20.5562 68.3236 20.4741 67.9086 20.3098C67.4935 20.1353 67.1615 19.8992 66.9124 19.6014C66.6634 19.2934 66.487 18.9238 66.3832 18.4926C66.2899 18.0614 66.2432 17.584 66.2432 17.0604V10.2536Z" fill="#0C1B1D" style="fill:#0C1B1D;fill:color(display-p3 0.0471 0.1059 0.1137);fill-opacity:1;"/>
<path d="M57.0847 12.5483C57.479 12.4354 57.9875 12.3327 58.61 12.2403C59.2326 12.1376 59.8863 12.0863 60.5712 12.0863C61.2664 12.0863 61.8423 12.1787 62.2989 12.3635C62.7658 12.538 63.1342 12.7896 63.404 13.1181C63.6737 13.4466 63.8657 13.8368 63.9798 14.2885C64.094 14.7402 64.1511 15.2433 64.1511 15.7977V20.3715H61.8319V16.0749C61.8319 15.3357 61.7334 14.8121 61.5362 14.5041C61.339 14.1961 60.9707 14.0421 60.4311 14.0421C60.2651 14.0421 60.0887 14.0524 59.9019 14.0729C59.7151 14.0832 59.5491 14.0986 59.4038 14.1191V20.3715H57.0847V12.5483Z" fill="#0C1B1D" style="fill:#0C1B1D;fill:color(display-p3 0.0471 0.1059 0.1137);fill-opacity:1;"/>
<path d="M47.5353 16.3827C47.5353 15.664 47.6442 15.0378 47.8621 14.5039C48.0904 13.9598 48.3861 13.508 48.7493 13.1487C49.1125 12.7894 49.5276 12.5173 49.9945 12.3325C50.4718 12.1477 50.9595 12.0553 51.4576 12.0553C52.6197 12.0553 53.538 12.4095 54.2125 13.1179C54.887 13.816 55.2242 14.8478 55.2242 16.2133C55.2242 16.3468 55.219 16.4956 55.2086 16.6599C55.1983 16.8139 55.1879 16.9525 55.1775 17.0757H49.9167C49.9685 17.548 50.1916 17.9227 50.5859 18.1999C50.9803 18.4771 51.5094 18.6157 52.1735 18.6157C52.599 18.6157 53.014 18.5798 53.4187 18.5079C53.8338 18.4258 54.171 18.3282 54.4304 18.2153L54.7417 20.0787C54.6172 20.1403 54.4512 20.2019 54.2436 20.2635C54.0361 20.3251 53.8026 20.3764 53.5432 20.4175C53.2942 20.4688 53.0244 20.5099 52.7339 20.5407C52.4433 20.5715 52.1528 20.5869 51.8622 20.5869C51.1255 20.5869 50.4822 20.4791 49.9322 20.2635C49.3927 20.0479 48.9413 19.7553 48.5781 19.3857C48.2253 19.0058 47.9607 18.5592 47.7843 18.0459C47.6183 17.5326 47.5353 16.9782 47.5353 16.3827ZM52.9829 15.5049C52.9725 15.3098 52.9362 15.1199 52.8739 14.9351C52.8221 14.7503 52.7339 14.586 52.6093 14.4423C52.4952 14.2986 52.3447 14.1805 52.158 14.0881C51.9816 13.9957 51.7585 13.9495 51.4887 13.9495C51.2293 13.9495 51.0062 13.9957 50.8194 14.0881C50.6326 14.1702 50.477 14.2832 50.3525 14.4269C50.228 14.5706 50.1294 14.74 50.0567 14.9351C49.9945 15.1199 49.9478 15.3098 49.9167 15.5049H52.9829Z" fill="#0C1B1D" style="fill:#0C1B1D;fill:color(display-p3 0.0471 0.1059 0.1137);fill-opacity:1;"/>
<path d="M45.6737 20.3714H43.3546V12.271H45.6737V20.3714ZM45.8916 9.93015C45.8916 10.3511 45.7515 10.6848 45.4714 10.9312C45.2016 11.1673 44.8799 11.2854 44.5063 11.2854C44.1328 11.2854 43.8059 11.1673 43.5258 10.9312C43.256 10.6848 43.1211 10.3511 43.1211 9.93015C43.1211 9.50922 43.256 9.18068 43.5258 8.94455C43.8059 8.69815 44.1328 8.57495 44.5063 8.57495C44.8799 8.57495 45.2016 8.69815 45.4714 8.94455C45.7515 9.18068 45.8916 9.50922 45.8916 9.93015Z" fill="#0C1B1D" style="fill:#0C1B1D;fill:color(display-p3 0.0471 0.1059 0.1137);fill-opacity:1;"/>
<path d="M41.6277 20.5254C40.9532 20.5152 40.4033 20.4433 39.9779 20.3098C39.5628 20.1764 39.2307 19.9916 38.9817 19.7554C38.7431 19.509 38.577 19.2164 38.4836 18.8776C38.4006 18.5286 38.3591 18.1384 38.3591 17.7072V8.79062L40.6783 8.42102V17.2452C40.6783 17.4506 40.6938 17.6354 40.725 17.7996C40.7561 17.9639 40.8132 18.1025 40.8962 18.2154C40.9896 18.3284 41.1193 18.4208 41.2853 18.4926C41.4513 18.5645 41.6744 18.6107 41.9546 18.6312L41.6277 20.5254Z" fill="#0C1B1D" style="fill:#0C1B1D;fill:color(display-p3 0.0471 0.1059 0.1137);fill-opacity:1;"/>
<path d="M33.2698 20.5871C31.5161 20.5871 30.1776 20.1045 29.2541 19.1395C28.341 18.1744 27.8844 16.8038 27.8844 15.0277C27.8844 14.1447 28.0245 13.3593 28.3046 12.6715C28.5848 11.9733 28.9687 11.3881 29.4564 10.9159C29.9441 10.4333 30.5252 10.0689 31.1997 9.82248C31.8741 9.57608 32.6057 9.45288 33.3943 9.45288C33.8508 9.45288 34.2659 9.48881 34.6394 9.56068C35.013 9.62228 35.3399 9.69928 35.62 9.79168C35.9002 9.87382 36.1337 9.96108 36.3204 10.0535C36.5072 10.1459 36.6421 10.2177 36.7251 10.2691L36.0247 12.2095C35.6927 12.0349 35.3035 11.8861 34.8574 11.7629C34.4215 11.6397 33.9235 11.5781 33.3631 11.5781C32.9896 11.5781 32.6212 11.6397 32.2581 11.7629C31.9053 11.8861 31.5888 12.0863 31.3086 12.3635C31.0388 12.6304 30.8209 12.9795 30.6549 13.4107C30.4889 13.8419 30.4059 14.3655 30.4059 14.9815C30.4059 15.4743 30.4578 15.9363 30.5615 16.3675C30.6757 16.7884 30.8521 17.1529 31.0907 17.4609C31.3397 17.7689 31.6614 18.0153 32.0557 18.2001C32.45 18.3746 32.9273 18.4619 33.4877 18.4619C33.8405 18.4619 34.1569 18.4413 34.4371 18.4003C34.7173 18.3592 34.9663 18.313 35.1842 18.2617C35.4021 18.2001 35.5941 18.1333 35.7601 18.0615C35.9261 17.9896 36.0766 17.9229 36.2115 17.8613L36.8808 19.7863C36.5383 19.9916 36.0558 20.1764 35.4332 20.3407C34.8107 20.5049 34.0895 20.5871 33.2698 20.5871Z" fill="#0C1B1D" style="fill:#0C1B1D;fill:color(display-p3 0.0471 0.1059 0.1137);fill-opacity:1;"/>
</svg>
